<svg width="88" height="41" viewBox="0 0 88 41" fill="none" xmlns="http://www.w3.org/2000/svg">
<path d="M7.42896 17.5149L14.5236 0.582964H19.4989L26.5483 17.5149H21.2669L16.8243 6.27229L13.8889 13.6503H17.3796L18.7736 17.5149H7.42896ZM33.0763 17.7643C29.1096 17.7643 25.7549 15.5203 25.7549 11.0436C25.7549 6.56696 29.0189 4.09629 32.3963 4.09629C32.9289 4.09629 33.4616 4.14163 34.0169 4.27763V0.0842972H38.4143V16.7556C37.4056 17.2089 35.2523 17.7643 33.0876 17.7643H33.0763ZM32.9743 14.1263C33.3483 14.1263 33.7109 14.081 34.0056 13.979V7.83629C33.6996 7.71162 33.3483 7.63229 32.9403 7.63229C31.4783 7.63229 30.1409 8.72029 30.1409 10.9643C30.1409 13.2083 31.5009 14.1263 32.9743 14.1263ZM46.2456 17.7416C42.5622 17.7416 39.4796 15.2709 39.4796 10.919C39.4796 6.56696 42.5622 4.09629 46.2456 4.09629C49.9289 4.09629 53.0456 6.56696 53.0456 10.919C53.0456 15.2709 49.9402 17.7416 46.2456 17.7416ZM46.2456 14.0809C47.5376 14.0809 48.6709 13.0723 48.6709 10.919C48.6709 8.76562 47.5376 7.75696 46.2456 7.75696C44.9536 7.75696 43.8429 8.76562 43.8429 10.919C43.8429 13.0723 44.9536 14.0809 46.2456 14.0809ZM59.3582 17.7756C57.6356 17.7756 55.4709 17.4243 54.0996 16.7896V0.0842972H58.4969V4.25496C59.0522 4.15296 59.6076 4.07363 60.1402 4.07363C63.5969 4.07363 66.7816 6.35162 66.7816 10.749C66.7816 15.3956 63.3702 17.7756 59.3582 17.7756ZM58.4969 7.87029V13.9903C58.7802 14.0923 59.1089 14.1376 59.4829 14.1376C60.9789 14.1376 62.3842 13.0723 62.3842 10.8056C62.3842 8.68629 61.0242 7.67762 59.5509 7.67762C59.1429 7.67762 58.8142 7.75696 58.4856 7.88162L58.4969 7.87029ZM67.8015 10.9076C67.8015 6.69162 70.7595 4.10763 74.2955 4.10763C77.6049 4.10763 80.6422 6.22696 80.6422 10.4996C80.6422 11.0776 80.6195 11.633 80.5402 12.1883H72.2782C72.7542 13.6843 74.0689 14.3869 75.7122 14.3869C77.0495 14.3869 78.2849 14.0583 79.6789 13.4576V16.8123C78.3869 17.4696 76.8455 17.7416 75.2589 17.7416C71.0655 17.7416 67.8015 15.2143 67.8015 10.8963V10.9076ZM72.2215 9.44562H76.5169C76.2902 8.00629 75.3269 7.42829 74.3409 7.42829C73.4115 7.42829 72.5502 8.04029 72.2215 9.44562Z" fill="white"/>
<path d="M6.44262 23.5896H12.0526L18.2633 40.5216H13.0839L11.9506 37.1896H6.03462L4.90129 40.5216H0.175293L6.44262 23.5896ZM10.7606 33.7216L9.01528 28.5423L7.22462 33.7216H10.7606ZM17.7873 33.9143C17.7873 29.5736 20.9493 27.1029 24.7573 27.1029C25.8679 27.1029 26.9333 27.2843 27.8626 27.7036V31.4436C27.0806 31.0129 26.3213 30.7069 25.3579 30.7069C23.7146 30.7069 22.2299 31.8743 22.2299 33.9143C22.2299 35.9543 23.7259 37.0989 25.3579 37.0989C26.3213 37.0989 27.0806 36.8496 27.8626 36.4189V40.1023C26.9333 40.5329 25.8679 40.7596 24.7573 40.7596C20.9379 40.7596 17.7873 38.2549 17.7873 33.9143ZM28.9279 27.3296H33.3026V29.1543C34.4359 27.3863 35.8299 26.9783 37.2466 27.1029V31.2736C35.5579 30.9676 34.4133 31.3756 33.3253 32.4863V40.5216H28.9279V27.3296ZM44.3412 40.7483C40.6579 40.7483 37.5752 38.2776 37.5752 33.9256C37.5752 29.5736 40.6579 27.1029 44.3412 27.1029C48.0246 27.1029 51.1412 29.5736 51.1412 33.9256C51.1412 38.2776 48.0359 40.7483 44.3412 40.7483ZM44.3412 37.0876C45.6332 37.0876 46.7666 36.0789 46.7666 33.9256C46.7666 31.7723 45.6332 30.7636 44.3412 30.7636C43.0492 30.7636 41.9386 31.7723 41.9386 33.9256C41.9386 36.0789 43.0492 37.0876 44.3412 37.0876ZM57.4539 40.7709C55.7312 40.7709 53.5666 40.4196 52.1952 39.7849V23.0796H56.5926V27.2503C57.1479 27.1483 57.7032 27.0689 58.2359 27.0689C61.6926 27.0689 64.8772 29.3469 64.8772 33.7329C64.8772 38.3796 61.4659 40.7709 57.4539 40.7709ZM56.5926 30.8656V36.9743C56.8759 37.0763 57.2046 37.1216 57.5786 37.1216C59.0746 37.1216 60.4799 36.0563 60.4799 33.7896C60.4799 31.6703 59.1199 30.6616 57.6466 30.6616C57.2386 30.6616 56.9099 30.7409 56.5812 30.8656H56.5926ZM65.5459 36.6003C65.5459 33.6989 68.1525 32.5089 70.8725 32.5089C71.6545 32.5089 72.3119 32.5883 72.9465 32.7583V32.6789C72.9465 31.1603 71.9832 30.5029 70.4192 30.5029C69.1839 30.5029 67.9712 30.8316 66.2712 31.6363V28.2023C67.6312 27.5223 69.3312 27.0916 71.1219 27.0916C74.4539 27.0916 77.1625 28.7576 77.1625 32.6223V39.6716C75.4399 40.4083 73.3999 40.7596 71.3485 40.7596C68.2659 40.7596 65.5459 39.4789 65.5459 36.6003ZM71.5639 37.6883C72.0739 37.6883 72.5725 37.6429 72.9579 37.5069V35.4896C72.5045 35.3649 72.0739 35.3083 71.5185 35.3083C70.4079 35.3083 69.6712 35.7389 69.6712 36.4983C69.6712 37.2576 70.4079 37.6883 71.5639 37.6883ZM85.1412 40.7143C82.5912 40.7143 80.2905 39.3769 80.2905 36.0676V30.9109H77.7859V27.3183H80.2905V23.9296L84.7105 23.6463V27.3069H87.8952V30.8996H84.7105V35.3989C84.7105 36.7136 85.4699 37.0196 86.3539 37.0196C86.9092 37.0196 87.3625 36.9176 87.9179 36.6909V40.2043C87.1812 40.4876 86.3765 40.7143 85.1412 40.7143Z" fill="black"/>
</svg>
