<svg width="20" height="21" viewBox="0 0 20 21" fill="none" xmlns="http://www.w3.org/2000/svg">
<path d="M14.45 5.34964C14.2522 5.34964 14.0589 5.40829 13.8944 5.51817C13.73 5.62805 13.6018 5.78423 13.5261 5.96696C13.4504 6.14968 13.4306 6.35075 13.4692 6.54473C13.5078 6.73871 13.603 6.9169 13.7429 7.05675C13.8828 7.1966 14.0609 7.29184 14.2549 7.33043C14.4489 7.36901 14.65 7.34921 14.8327 7.27352C15.0154 7.19783 15.1716 7.06966 15.2815 6.90521C15.3914 6.74076 15.45 6.54742 15.45 6.34964C15.45 6.08443 15.3446 5.83007 15.1571 5.64254C14.9696 5.455 14.7152 5.34964 14.45 5.34964ZM18.2833 7.36631C18.2671 6.67489 18.1376 5.99081 17.9 5.34131C17.6881 4.78559 17.3583 4.28237 16.9333 3.86631C16.5207 3.43916 16.0163 3.11146 15.4583 2.90798C14.8106 2.66311 14.1257 2.53065 13.4333 2.51631C12.55 2.46631 12.2667 2.46631 10 2.46631C7.73334 2.46631 7.45001 2.46631 6.56667 2.51631C5.8743 2.53065 5.18946 2.66311 4.54167 2.90798C3.98474 3.11352 3.48078 3.44094 3.06667 3.86631C2.63953 4.27896 2.31182 4.78334 2.10834 5.34131C1.86347 5.98909 1.73101 6.67394 1.71667 7.36631C1.66667 8.24964 1.66667 8.53298 1.66667 10.7996C1.66667 13.0663 1.66667 13.3496 1.71667 14.233C1.73101 14.9253 1.86347 15.6102 2.10834 16.258C2.31182 16.8159 2.63953 17.3203 3.06667 17.733C3.48078 18.1583 3.98474 18.4858 4.54167 18.6913C5.18946 18.9362 5.8743 19.0686 6.56667 19.083C7.45001 19.133 7.73334 19.133 10 19.133C12.2667 19.133 12.55 19.133 13.4333 19.083C14.1257 19.0686 14.8106 18.9362 15.4583 18.6913C16.0163 18.4878 16.5207 18.1601 16.9333 17.733C17.3602 17.3185 17.6903 16.8148 17.9 16.258C18.1376 15.6085 18.2671 14.9244 18.2833 14.233C18.2833 13.3496 18.3333 13.0663 18.3333 10.7996C18.3333 8.53298 18.3333 8.24964 18.2833 7.36631ZM16.7833 14.133C16.7773 14.662 16.6815 15.1861 16.5 15.683C16.367 16.0456 16.1532 16.3733 15.875 16.6413C15.6047 16.9167 15.2777 17.13 14.9167 17.2663C14.4198 17.4478 13.8956 17.5436 13.3667 17.5496C12.5333 17.5913 12.225 17.5996 10.0333 17.5996C7.84167 17.5996 7.53334 17.5996 6.70001 17.5496C6.15075 17.5599 5.60383 17.4754 5.08334 17.2996C4.73816 17.1564 4.42614 16.9436 4.16667 16.6746C3.89008 16.4069 3.67904 16.079 3.55001 15.7163C3.34655 15.2123 3.23371 14.6763 3.21667 14.133C3.21667 13.2996 3.16667 12.9913 3.16667 10.7996C3.16667 8.60798 3.16667 8.29964 3.21667 7.46631C3.22041 6.92552 3.31913 6.3896 3.50834 5.88298C3.65504 5.53123 3.88023 5.21769 4.16667 4.96631C4.41985 4.67978 4.73274 4.45222 5.08334 4.29964C5.5913 4.11634 6.12667 4.02054 6.66667 4.01631C7.50001 4.01631 7.80834 3.96631 10 3.96631C12.1917 3.96631 12.5 3.96631 13.3333 4.01631C13.8623 4.02238 14.3864 4.11818 14.8833 4.29964C15.262 4.44019 15.6019 4.66868 15.875 4.96631C16.1481 5.22229 16.3615 5.53525 16.5 5.88298C16.6852 6.39042 16.7811 6.92613 16.7833 7.46631C16.825 8.29964 16.8333 8.60798 16.8333 10.7996C16.8333 12.9913 16.825 13.2996 16.7833 14.133ZM10 6.52464C9.15485 6.52629 8.32914 6.77841 7.62722 7.24916C6.92529 7.7199 6.37865 8.38814 6.05637 9.16944C5.73408 9.95073 5.65061 10.81 5.8165 11.6388C5.98239 12.4675 6.3902 13.2284 6.9884 13.8255C7.5866 14.4225 8.34835 14.8288 9.17739 14.9931C10.0064 15.1574 10.8656 15.0722 11.6462 14.7484C12.4269 14.4246 13.0941 13.8767 13.5634 13.1738C14.0328 12.471 14.2833 11.6448 14.2833 10.7996C14.2844 10.2372 14.1743 9.68015 13.9594 9.16044C13.7444 8.64073 13.4288 8.16865 13.0307 7.77135C12.6327 7.37405 12.16 7.05937 11.6398 6.84542C11.1197 6.63146 10.5624 6.52244 10 6.52464ZM10 13.5746C9.45116 13.5746 8.91464 13.4119 8.4583 13.107C8.00195 12.802 7.64627 12.3687 7.43624 11.8616C7.22621 11.3545 7.17125 10.7966 7.27833 10.2583C7.3854 9.71997 7.64969 9.22551 8.03778 8.83742C8.42587 8.44933 8.92033 8.18504 9.45863 8.07796C9.99693 7.97089 10.5549 8.02584 11.062 8.23588C11.569 8.44591 12.0024 8.80159 12.3073 9.25793C12.6123 9.71428 12.775 10.2508 12.775 10.7996C12.775 11.1641 12.7032 11.5249 12.5638 11.8616C12.4243 12.1983 12.2199 12.5042 11.9622 12.7619C11.7045 13.0195 11.3986 13.224 11.062 13.3634C10.7253 13.5029 10.3644 13.5746 10 13.5746Z" fill="black"/>
</svg>
