<svg width="166" height="41" viewBox="0 0 166 41" fill="none" xmlns="http://www.w3.org/2000/svg">
<path d="M35.548 3.60547L39.9992 11.2884L35.548 18.9713H26.6456L22.1943 11.2884L26.6456 3.60547L35.548 3.60547Z" fill="black"/>
<path d="M13.3537 3.60547L28.8415 30.3128L24.3902 37.9957H15.4878L0 11.2884L4.45122 3.60547L13.3537 3.60547Z" fill="black"/>
<path d="M61.2421 10.0216L67.0254 26.9453H67.2587L73.042 10.0216H76.4308L68.9531 30.8008H65.331L57.8533 10.0216H61.2421ZM84.3422 31.1153C82.8068 31.1153 81.4844 30.7873 80.3751 30.1311C79.2726 29.4683 78.4203 28.5382 77.8183 27.341C77.2231 26.137 76.9254 24.7266 76.9254 23.11C76.9254 21.5137 77.2231 20.1068 77.8183 18.8893C78.4203 17.6717 79.259 16.7214 80.3345 16.0382C81.4168 15.355 82.6817 15.0134 84.1292 15.0134C85.0085 15.0134 85.8608 15.1589 86.686 15.4497C87.5112 15.7406 88.2519 16.1972 88.908 16.8194C89.5641 17.4417 90.0815 18.25 90.4603 19.2444C90.8391 20.2319 91.0285 21.4325 91.0285 22.8462V23.9217H78.6401V21.649H88.0557C88.0557 20.8508 87.8934 20.144 87.5687 19.5285C87.244 18.9062 86.7874 18.4158 86.199 18.0573C85.6173 17.6988 84.9341 17.5195 84.1495 17.5195C83.2972 17.5195 82.5531 17.7292 81.9173 18.1486C81.2883 18.5612 80.8012 19.1023 80.4563 19.772C80.1181 20.4348 79.949 21.1552 79.949 21.9331V23.7087C79.949 24.7503 80.1316 25.6364 80.4969 26.3669C80.8689 27.0975 81.3863 27.6555 82.0492 28.041C82.7121 28.4198 83.4866 28.6092 84.3727 28.6092C84.9476 28.6092 85.4718 28.5281 85.9453 28.3657C86.4188 28.1966 86.828 27.9463 87.173 27.6149C87.518 27.2835 87.7818 26.8742 87.9644 26.3872L90.8357 26.9047C90.6058 27.7502 90.1932 28.4909 89.5979 29.1267C89.0094 29.7557 88.2688 30.2461 87.3759 30.5979C86.4898 30.9428 85.4786 31.1153 84.3422 31.1153ZM97.4282 21.5475V30.8008H94.3945V15.2164H97.3064V17.7529H97.4992C97.8577 16.9277 98.4191 16.2648 99.1835 15.7643C99.9546 15.2637 100.925 15.0134 102.095 15.0134C103.157 15.0134 104.087 15.2367 104.886 15.6831C105.684 16.1228 106.303 16.7789 106.742 17.6514C107.182 18.524 107.402 19.6029 107.402 20.888V30.8008H104.368V21.2533C104.368 20.1237 104.074 19.241 103.485 18.6052C102.897 17.9626 102.089 17.6413 101.06 17.6413C100.357 17.6413 99.7313 17.7935 99.1835 18.0979C98.6423 18.4022 98.2128 18.8487 97.8949 19.4371C97.5837 20.0189 97.4282 20.7223 97.4282 21.5475ZM118.745 15.2164V17.6514H110.233V15.2164H118.745ZM112.515 11.4826H115.549V26.2249C115.549 26.8134 115.637 27.2564 115.813 27.554C115.989 27.8449 116.215 28.0444 116.493 28.1526C116.777 28.2541 117.085 28.3048 117.416 28.3048C117.66 28.3048 117.873 28.2879 118.055 28.2541C118.238 28.2203 118.38 28.1932 118.481 28.1729L119.029 30.679C118.853 30.7467 118.603 30.8143 118.278 30.882C117.954 30.9564 117.548 30.9969 117.061 31.0037C116.263 31.0172 115.519 30.8752 114.829 30.5776C114.139 30.2799 113.581 29.82 113.155 29.1977C112.728 28.5754 112.515 27.7942 112.515 26.8539V11.4826ZM131.973 24.3377V15.2164H135.017V30.8008H132.034V28.1019H131.872C131.513 28.9339 130.938 29.6272 130.147 30.1819C129.362 30.7298 128.385 31.0037 127.215 31.0037C126.214 31.0037 125.327 30.7839 124.556 30.3442C123.792 29.8978 123.19 29.2383 122.75 28.3657C122.317 27.4932 122.101 26.4143 122.101 25.1291V15.2164H125.135V24.7638C125.135 25.8258 125.429 26.6713 126.017 27.3004C126.606 27.9294 127.37 28.244 128.31 28.244C128.879 28.244 129.443 28.1019 130.005 27.8178C130.573 27.5337 131.043 27.1042 131.415 26.5293C131.794 25.9543 131.98 25.2238 131.973 24.3377ZM139.093 30.8008V15.2164H142.025V17.692H142.188C142.472 16.8533 142.972 16.1938 143.689 15.7135C144.413 15.2265 145.232 14.983 146.145 14.983C146.334 14.983 146.557 14.9898 146.814 15.0033C147.078 15.0168 147.284 15.0337 147.433 15.054V17.9558C147.311 17.922 147.095 17.8848 146.784 17.8442C146.473 17.7969 146.162 17.7732 145.85 17.7732C145.133 17.7732 144.494 17.9254 143.933 18.2298C143.378 18.5274 142.939 18.9434 142.614 19.4777C142.289 20.0053 142.127 20.6073 142.127 21.2837V30.8008H139.093ZM156.217 31.1153C154.682 31.1153 153.359 30.7873 152.25 30.1311C151.148 29.4683 150.295 28.5382 149.693 27.341C149.098 26.137 148.8 24.7266 148.8 23.11C148.8 21.5137 149.098 20.1068 149.693 18.8893C150.295 17.6717 151.134 16.7214 152.21 16.0382C153.292 15.355 154.557 15.0134 156.004 15.0134C156.884 15.0134 157.736 15.1589 158.561 15.4497C159.386 15.7406 160.127 16.1972 160.783 16.8194C161.439 17.4417 161.957 18.25 162.335 19.2444C162.714 20.2319 162.904 21.4325 162.904 22.8462V23.9217H150.515V21.649H159.931C159.931 20.8508 159.768 20.144 159.444 19.5285C159.119 18.9062 158.662 18.4158 158.074 18.0573C157.492 17.6988 156.809 17.5195 156.024 17.5195C155.172 17.5195 154.428 17.7292 153.792 18.1486C153.163 18.5612 152.676 19.1023 152.331 19.772C151.993 20.4348 151.824 21.1552 151.824 21.9331V23.7087C151.824 24.7503 152.007 25.6364 152.372 26.3669C152.744 27.0975 153.261 27.6555 153.924 28.041C154.587 28.4198 155.362 28.6092 156.248 28.6092C156.823 28.6092 157.347 28.5281 157.82 28.3657C158.294 28.1966 158.703 27.9463 159.048 27.6149C159.393 27.2835 159.657 26.8742 159.839 26.3872L162.711 26.9047C162.481 27.7502 162.068 28.4909 161.473 29.1267C160.884 29.7557 160.144 30.2461 159.251 30.5979C158.365 30.9428 157.354 31.1153 156.217 31.1153Z" fill="black"/>
</svg>
